<?xml version="1.0" encoding="utf-8"?>
<!-- Generator: Adobe Illustrator 17.0.0, SVG Export Plug-In . SVG Version: 6.00 Build 0)  -->
<!DOCTYPE svg PUBLIC "-//W3C//DTD SVG 1.1//EN" "http://www.w3.org/Graphics/SVG/1.1/DTD/svg11.dtd">
<svg version="1.1" xmlns="http://www.w3.org/2000/svg" xmlns:xlink="http://www.w3.org/1999/xlink" x="0px" y="0px"
	 width="253.333px" height="246.667px" viewBox="0 0 253.333 246.667" enable-background="new 0 0 253.333 246.667"
	 xml:space="preserve">
<g id="Layer_1">
	<circle fill="#926882" cx="123.889" cy="122.778" r="108.333"/>
	<g>
		<path fill="#9DBCB8" d="M238.563,124.778c0.418,27.656-17.509,50.28-39.447,63.383c-22.371,13.535-48.752,17.549-75.227,17.967
			c-26.475-0.418-52.856-4.431-75.227-17.967c-21.938-13.103-39.866-35.728-39.447-63.383c-0.418-27.656,17.509-50.28,39.447-63.383
			c22.371-13.535,48.752-17.549,75.227-17.967c26.475,0.418,52.856,4.432,75.227,17.967
			C221.054,74.497,238.981,97.122,238.563,124.778z"/>
	</g>
	<rect x="43.333" y="55.444" fill="none" width="196.667" height="150.022"/>
	<text transform="matrix(1 0 0 1 43.3332 128.8025)"><tspan x="0" y="0" font-family="'HoboStd'" font-size="86" letter-spacing="-3">Lilac</tspan><tspan x="163.999" y="0" font-family="'HoboStd'" font-size="56"> </tspan><tspan x="0" y="59.2" font-family="'HoboStd'" font-size="68">Dairy</tspan></text>
</g>
<g id="Layer_2">
</g>
<g id="Layer_3">
</g>
</svg>
